<?xml version="1.0" encoding="utf-8"?>
<!-- Generator: Adobe Illustrator 22.0.1, SVG Export Plug-In . SVG Version: 6.00 Build 0)  -->
<svg version="1.1" id="Слой_1" xmlns="http://www.w3.org/2000/svg" xmlns:xlink="http://www.w3.org/1999/xlink" x="0px" y="0px"
	 viewBox="0 0 16 16" style="enable-background:new 0 0 16 16;" xml:space="preserve">
<style type="text/css">
	.st0{fill:#FF4834;}
</style>
<g>
	<path class="st0" d="M9.6,4.6c0.1,0,0.3,0,0.5-0.1c0.3-0.2,0.5-0.5,0.5-0.8c0-0.2,0-0.4-0.2-0.5C10.2,2.9,10,2.7,9.7,2.7h0
		c-0.2,0-0.3,0-0.4,0.1C8.9,3,8.7,3.3,8.7,3.7c0,0.1,0,0.3,0.1,0.4C8.9,4.4,9.3,4.6,9.6,4.6z"/>
	<path class="st0" d="M7.1,4.8c0.1,0,0.3,0,0.5-0.1C7.9,4.4,8,4.1,8,3.8c0-0.2,0-0.4-0.2-0.5C7.7,3,7.4,2.8,7.1,2.8h0
		c-0.2,0-0.3,0-0.4,0.1C6.3,3.1,6.1,3.4,6.1,3.8c0,0.1,0,0.3,0.1,0.4C6.4,4.6,6.7,4.8,7.1,4.8z"/>
	<path class="st0" d="M13.3,12.1c0,0.1,0,0.3,0,0.5c0.2,0.4,0.4,0.6,0.8,0.7c0.2,0,0.4,0,0.6,0c0.3-0.2,0.6-0.4,0.6-0.7v0
		c0-0.2,0-0.3,0-0.5c-0.2-0.4-0.4-0.6-0.8-0.7c-0.1,0-0.3,0-0.5,0C13.6,11.4,13.4,11.7,13.3,12.1z"/>
	<path class="st0" d="M13.4,3.3c0,0.1,0,0.3,0,0.5c0.2,0.4,0.4,0.6,0.8,0.7c0.2,0,0.4,0,0.6,0c0.3-0.2,0.6-0.4,0.6-0.7v0
		c0-0.2,0-0.3,0-0.5c-0.2-0.4-0.4-0.6-0.8-0.7c-0.1,0-0.3,0-0.5,0C13.8,2.6,13.5,2.9,13.4,3.3z"/>
	<path class="st0" d="M9.5,8.9c0.2,0,0.3,0,0.5-0.1c0.3-0.2,0.5-0.5,0.5-0.8V7.9c0-0.1,0-0.2-0.1-0.3c-0.2-0.3-0.5-0.5-0.8-0.5
		c-0.2,0-0.3,0-0.5,0.1C8.8,7.4,8.6,7.6,8.6,7.9V8c0,0.1,0,0.2,0.1,0.3C8.9,8.7,9.2,8.9,9.5,8.9z"/>
	<path class="st0" d="M13.3,7.7c-0.2-0.4-0.5-0.6-0.8-0.6c-0.1,0-0.2,0-0.3,0c-0.5,0.2-0.7,0.5-0.7,0.9v2.3
		c-0.8,0.8-1.7,1.2-2.8,1.2c-0.7,0-1.4-0.2-2-0.5c-0.6-0.4-1.1-0.9-1.4-1.5l0,0c0-0.1,0-0.1-0.1-0.2c0,0,0,0,0,0c0,0,0-0.1,0-0.2
		c0,0,0,0,0-0.1l0,0c0,0,0-0.1,0-0.2C5.1,8.7,5,8.4,5,8C5,8,5,8,5,8l0,0l0,0c0,0,0-0.1,0-0.2c0-0.2,0-0.3,0-0.5C5.2,6.6,5.5,6,6,5.5
		c0.2-0.2,0.2-0.5,0.1-0.7c0-0.1-0.1-0.2-0.2-0.3C5.6,4.2,5.3,4.1,5,4.2l-0.1,0c-0.1,0-0.2,0.1-0.3,0.2C4.4,4.7,4.1,5,3.9,5.3
		C3.8,5.4,3.8,5.5,3.7,5.7c0,0.1-0.1,0.2-0.1,0.3C3.3,6.6,3.2,7.3,3.2,8c0,0.8,0.2,1.6,0.5,2.2c0.4,0.9,1.1,1.6,2,2.3
		c0.3,0.2,0.7,0.4,1,0.5c0.6,0.2,1.2,0.3,1.6,0.3h0.9c0.3,0,0.8-0.1,1.4-0.3c0.3-0.1,0.6-0.3,1-0.5c0.3-0.2,0.7-0.5,1.1-0.8
		c0.4-0.5,0.6-0.7,0.7-0.9V8C13.3,7.9,13.3,7.8,13.3,7.7z"/>
	<path class="st0" d="M6.5,15.8c2.3,0.5,4.6,0.1,6.4-1.1c0.5-0.3,0.6-0.9,0.2-1.4l0,0c-0.3-0.3-0.8-0.4-1.2-0.2
		c-1.4,0.9-3.3,1.3-5.1,0.8c-3.2-0.8-5.2-4-4.5-7.2c0.7-3.4,4.1-5.6,7.6-4.9c0.8,0.2,1.4,0.5,2,0.8C12.2,3,12.7,2.9,13,2.6l0,0
		c0.4-0.4,0.3-1.1-0.2-1.3c-0.8-0.5-1.7-0.9-2.7-1.1c-4.5-1-9,1.9-9.9,6.4C-0.4,10.7,2.3,14.8,6.5,15.8z"/>
</g>
</svg>
