<?xml version="1.0" encoding="iso-8859-1"?>
<!-- Generator: Adobe Illustrator 19.0.0, SVG Export Plug-In . SVG Version: 6.00 Build 0)  -->
<svg version="1.1" id="Capa_1" xmlns="http://www.w3.org/2000/svg" xmlns:xlink="http://www.w3.org/1999/xlink" x="0px" y="0px"
	 viewBox="0 0 479.952 479.952" style="enable-background:new 0 0 479.952 479.952;" xml:space="preserve">
<g>
	<g>
		<path d="M473.508,272.539c-12.582-29.466-41.536-48.579-73.576-48.567c-5.411-0.003-10.808,0.543-16.108,1.63l-15.892-50.852
			v-54.778h28c6.627,0,12,5.373,12,12c0,6.627-5.373,12-12,12h-12c-4.418,0-8,3.582-8,8s3.582,8,8,8h12c15.464,0,28-12.536,28-28
			s-12.536-28-28-28h-60c-4.418,0-8,3.582-8,8s3.582,8,8,8h16v48h-160v-24h32c4.418,0,8-3.582,8-8
			c-0.026-22.081-17.919-39.974-40-40h-48c-4.418,0-8,3.582-8,8c0.026,22.081,17.919,39.974,40,40v29.163l-52.05,64.062
			c-36.902-24.254-86.479-14-110.733,22.902s-14,86.479,22.902,110.733c36.902,24.254,86.479,14,110.733-22.902
			c7.087-10.782,11.459-23.12,12.743-35.958h33.214c4.372,21.65,25.468,35.656,47.117,31.284
			c21.65-4.372,35.656-25.468,31.284-47.117c-1.023-5.065-3.018-9.883-5.874-14.189l90.97-90.971l12.318,39.418
			c-40.619,17.344-59.487,64.332-42.143,104.951c17.344,40.619,64.332,59.487,104.951,42.143
			C471.983,360.146,490.852,313.158,473.508,272.539z M231.932,183.972h48v16h-48V183.972z M153.303,111.972h38.629
			c10.167,0.011,19.228,6.418,22.629,16h-38.629C165.764,127.96,156.703,121.554,153.303,111.972z M79.932,367.972
			c-35.346,0.09-64.073-28.491-64.162-63.837c-0.09-35.346,28.491-64.073,63.837-64.162c12.059-0.031,23.882,3.346,34.105,9.742
			l-10.169,12.515c-23.06-13.063-52.344-4.958-65.406,18.102s-4.958,52.344,18.102,65.406s52.344,4.958,65.406-18.102
			c2.752-4.858,4.635-10.159,5.564-15.664h16.166C139.323,343.939,112.155,367.92,79.932,367.972z M72.709,307.409
			c1.325,2.788,4.136,4.564,7.222,4.562h30.864c-4.382,17.159-21.844,27.517-39.004,23.135
			c-17.159-4.382-27.517-21.844-23.135-39.004c4.382-17.159,21.844-27.517,39.004-23.135c1.907,0.487,3.765,1.149,5.551,1.976
			l-19.487,23.984C71.776,301.322,71.381,304.624,72.709,307.409z M96.74,295.972l8.866-10.912
			c2.412,3.272,4.173,6.976,5.189,10.912H96.74z M127.209,295.972c-1.482-8.773-5.385-16.958-11.267-23.633L126.13,259.8
			c9.487,9.89,15.534,22.575,17.246,36.172H127.209z M192.74,295.972h-33.214c-1.851-18.436-10.061-35.652-23.22-48.696
			l45.034-55.427l29.379,78.346C201.462,275.975,194.967,285.287,192.74,295.972z M216.539,285.712l3.847,10.259h-10.98
			C210.833,291.98,213.294,288.44,216.539,285.712z M232.051,327.972c-10.183,0.025-19.267-6.393-22.645-16h22.526
			c0.937-0.018,1.863-0.201,2.736-0.542c0.173-0.063,0.338-0.117,0.505-0.192c0.839-0.369,1.607-0.881,2.271-1.514
			c0.042-0.042,0.102-0.054,0.144-0.097l15.939-15.938c1.564,3.203,2.386,6.718,2.405,10.282
			C255.965,317.194,245.273,327.939,232.051,327.972z M231.494,280.016c0.149-0.003,0.288-0.045,0.438-0.045
			c3.565,0.019,7.079,0.841,10.282,2.405l-7.153,7.154L231.494,280.016z M253.955,270.636c-8.233-5.695-18.4-7.868-28.242-6.035
			l-30.236-80.629h20.454v24c0,4.418,3.582,8,8,8h64c4.418,0,8-3.582,8-8v-24h44.687L253.955,270.636z M392.295,306.358
			c1.318,4.218,5.805,6.568,10.023,5.25c4.218-1.318,6.568-5.805,5.25-10.023l-9.205-29.455c0.531-0.026,1.031-0.158,1.568-0.158
			c17.821-0.148,32.387,14.179,32.535,32c0.148,17.821-14.179,32.387-32,32.535c-17.821,0.148-32.387-14.179-32.535-32
			c-0.093-11.215,5.644-21.674,15.152-27.623L392.295,306.358z M411.269,366.964c-3.742,0.672-7.536,1.009-11.337,1.008
			c-35.322,0.024-63.976-28.59-64-63.912c-0.017-25.077,14.622-47.85,37.443-58.246l4.818,15.418
			c-24.476,12.277-34.366,42.071-22.089,66.547c12.277,24.476,42.071,34.366,66.547,22.089
			c24.476-12.277,34.366-42.071,22.089-66.547c-9.549-19.037-30.188-29.849-51.274-26.861l-4.821-15.43
			c34.776-6.247,68.031,16.879,74.279,51.655C469.171,327.461,446.045,360.716,411.269,366.964z"/>
	</g>
</g>
<g>
	<g>
		<path d="M111.932,103.972h-64c-4.418,0-8,3.582-8,8s3.582,8,8,8h64c4.418,0,8-3.582,8-8S116.35,103.972,111.932,103.972z"/>
	</g>
</g>
<g>
	<g>
		<path d="M87.932,135.972h-64c-4.418,0-8,3.582-8,8s3.582,8,8,8h64c4.418,0,8-3.582,8-8S92.35,135.972,87.932,135.972z"/>
	</g>
</g>
<g>
</g>
<g>
</g>
<g>
</g>
<g>
</g>
<g>
</g>
<g>
</g>
<g>
</g>
<g>
</g>
<g>
</g>
<g>
</g>
<g>
</g>
<g>
</g>
<g>
</g>
<g>
</g>
<g>
</g>
</svg>
